<?xml version="1.0" standalone="no"?><!DOCTYPE svg PUBLIC "-//W3C//DTD SVG 1.1//EN" "http://www.w3.org/Graphics/SVG/1.1/DTD/svg11.dtd"><svg t="1731130217364" class="icon" viewBox="0 0 1024 1024" version="1.1" xmlns="http://www.w3.org/2000/svg" p-id="26297" xmlns:xlink="http://www.w3.org/1999/xlink" width="200" height="200"><path d="M511.974273 512.025215m-486.3741 0a486.374101 486.374101 0 1 0 972.748201 0 486.374101 486.374101 0 1 0-972.748201 0Z" fill="#FFFFFF" p-id="26298"></path><path d="M149.958351 874.041137A511.972737 511.972737 0 1 1 511.974273 1023.997952a508.644915 508.644915 0 0 1-362.015922-149.956815zM51.19881 512.025215a460.775464 460.775464 0 1 0 460.775463-460.775464 461.313035 461.313035 0 0 0-460.775463 460.775464z m326.536212 308.745159a295.40827 295.40827 0 0 1-101.626589-86.881774h471.757279a295.152283 295.152283 0 0 1-101.626588 86.881774 292.9508 292.9508 0 0 1-268.529701 0z m80.635706-363.19346l119.443239-68.988326v140.485319h-34.122982v68.271564h85.320256v-68.271564h-34.122983v-150.340795l31.74231-18.354222-17.048692-29.540827-251.250621 145.041876 1.12634 1.971095h-3.507013v221.863386h-101.498595a293.232385 293.232385 0 0 1-35.044534-138.974999c0-53.552348 22.34761-109.66456 68.322761-171.510867a1219.570258 1219.570258 0 0 1 203.585959-201.51247l20.632502-16.997495 20.606902 16.997495a1218.879095 1218.879095 0 0 1 203.58596 201.51247c46.077546 61.897504 68.322762 118.035315 68.322761 171.510867a293.001998 293.001998 0 0 1-35.044534 138.949401h-311.151431z m136.51753 225.114413h85.320257V614.419762h-85.320257z m-102.394547 0h85.320256V614.419762h-85.320256z m-68.271565 17.07429h-34.122983v-202.766802l34.148582-19.710951v222.426556z" fill="#1890FF" p-id="26299"></path></svg>