<?xml version="1.0" standalone="no"?><!DOCTYPE svg PUBLIC "-//W3C//DTD SVG 1.1//EN" "http://www.w3.org/Graphics/SVG/1.1/DTD/svg11.dtd"><svg t="1731130191515" class="icon" viewBox="0 0 1024 1024" version="1.1" xmlns="http://www.w3.org/2000/svg" p-id="22565" xmlns:xlink="http://www.w3.org/1999/xlink" width="200" height="200"><path d="M964.716 631.872c0-250.028-202.688-452.714-452.716-452.714S59.284 381.844 59.284 631.872H16.168v140.748l150.906 117.948h689.852l150.906-117.948v-140.748h-43.116z" fill="#FFD54F" p-id="22566"></path><path d="M672.664 427.57l43.886-199.664C655.112 196.734 585.61 179.158 512 179.158s-143.112 17.576-204.55 48.748l43.886 199.664c6.028 27.428-14.854 53.398-42.936 53.398l9.58 43.116h388.04l9.58-43.116c-28.08 0-48.964-25.972-42.936-53.398z" fill="#FFB300" p-id="22567"></path><path d="M619.79 524.084h-215.58L339.536 179.158c60.974-60.974 283.952-60.974 344.926 0l-64.672 344.926z" fill="#FFD54F" p-id="22568"></path><path d="M413.946 217.136l-19.472-25.818C425.008 168.29 492.15 166.5 512 166.5c16.66 0 32.798 0.948 47.966 2.822l-3.962 32.094c-13.664-1.686-28.878-2.578-44.004-2.578-44.138 0-83.542 7.352-98.054 18.298z m196.106 0c-3.486-2.628-10.552-6.534-24.436-10.218l8.294-31.254c15.21 4.036 27.194 9.302 35.618 15.66l-19.476 25.812z" fill="#FFFFFF" p-id="22569"></path><path d="M512 480.968c-64.674 0-119.916-21.558-119.916-21.558l12.126 64.674h215.578l12.126-64.674c0.002 0-55.24 21.558-119.914 21.558z" fill="#FFB300" p-id="22570"></path><path d="M423.692 540.252h-118.682l-64.618-290.78 9.106-6.164a468.616 468.616 0 0 1 90.018-47.566l18.23-7.216 65.946 351.726z m-92.744-32.338h53.78l-51.456-274.44a436.688 436.688 0 0 0-56.51 30.592l54.186 243.848zM718.99 540.252h-118.682l65.95-351.726 18.23 7.216a468.564 468.564 0 0 1 90.018 47.566l9.106 6.164-64.622 290.78z m-79.718-32.338h53.78l54.188-243.848a436.688 436.688 0 0 0-56.51-30.592l-51.458 274.44z" p-id="22571"></path><path d="M512 588.758c-172.468 0-326.714-38.96-429.532-100.222-15.026 45.05-23.184 93.24-23.184 143.338h905.432c0-50.1-8.156-98.292-23.184-143.338-102.818 61.262-257.064 100.222-429.532 100.222zM84.328 825.894h855.344l68.16-53.272H16.168z" fill="#FFB300" p-id="22572"></path><path d="M980.602 615.704c-2.886-84.68-28.418-166.524-74.29-237.646a470.394 470.394 0 0 0-122.726-128.48l0.024-0.106-5.732-3.88a468.874 468.874 0 0 0-46.824-28.374l-0.546-0.288a469.516 469.516 0 0 0-17.548-8.808l-0.022 0.048a466.726 466.726 0 0 0-16.09-7.314l5.082-27.096-6.03-6.03c-31.6-31.602-100.346-50.468-183.896-50.468s-152.296 18.866-183.896 50.468l-6.03 6.03 5.082 27.096a471.496 471.496 0 0 0-15.108 6.844l-0.022-0.044a468.206 468.206 0 0 0-18.482 9.248l-0.554 0.292a469.634 469.634 0 0 0-46.662 28.258l-5.938 4.018 0.024 0.112a470.422 470.422 0 0 0-122.436 128.022c-46.058 71.232-71.69 153.234-74.584 238.1H0v173.084h10.6l150.906 117.948h700.992l150.906-117.948H1024v-173.084h-43.398v-0.002z m-254.308-364.24c1.302 0.738 2.594 1.49 3.886 2.238 0.842 0.488 1.688 0.966 2.526 1.46a433.944 433.944 0 0 1 14.524 8.946l-54.18 243.806h-53.78l2.594-13.828 48.866-260.614a437.8 437.8 0 0 1 35.564 17.992zM512 149.596c67.52 0 126.714 13.794 154.878 35.612l-60.508 322.71h-188.742L357.122 185.206C385.286 163.39 444.48 149.596 512 149.596z m-129.864 344.492l2.594 13.828h-53.78l-54.18-243.808a439.42 439.42 0 0 1 8.59-5.392c0.566-0.344 1.136-0.684 1.706-1.026 1.492-0.902 2.99-1.796 4.494-2.68 1.18-0.692 2.364-1.372 3.552-2.052 0.958-0.55 1.91-1.102 2.872-1.644a475.8 475.8 0 0 1 5.68-3.144c0.312-0.17 0.62-0.344 0.934-0.514a437.36 437.36 0 0 1 28.672-14.178l48.866 260.61z m-134.03-209.9l56.904 256.064h413.988l56.902-256.06c102.784 78.44 167.422 200.312 172.352 331.514H75.756c4.926-131.27 69.55-253.09 172.35-331.518zM32.336 648.042H991.66v108.41H32.336v-108.41zM851.358 874.4H172.642l-109.532-85.61h897.778L851.358 874.4z" p-id="22573"></path><path d="M533.56 680.378h32.34v32.34h-32.34zM404.2 680.378h32.34v32.34H404.2zM598.24 680.378h32.34v32.34h-32.34zM468.88 680.378h32.34v32.34h-32.34z" p-id="22574"></path></svg>