<?xml version="1.0" standalone="no"?><!DOCTYPE svg PUBLIC "-//W3C//DTD SVG 1.1//EN" "http://www.w3.org/Graphics/SVG/1.1/DTD/svg11.dtd"><svg t="1731130279103" class="icon" viewBox="0 0 1088 1024" version="1.1" xmlns="http://www.w3.org/2000/svg" p-id="32387" xmlns:xlink="http://www.w3.org/1999/xlink" width="212.5" height="200"><path d="M928 704h-704L64 838.4V102.4C64 44.8 108.8 0 166.4 0h755.2c57.6 0 102.4 44.8 102.4 102.4v492.8c6.4 64-44.8 108.8-96 108.8z" fill="#FFD9A1" p-id="32388"></path><path d="M864 832h-704L0 966.4V230.4C0 172.8 44.8 128 102.4 128h755.2c57.6 0 102.4 44.8 102.4 102.4v492.8c6.4 64-44.8 108.8-96 108.8z" fill="#FFAA13" p-id="32389"></path><path d="M864 832H0V230.4C0 172.8 44.8 128 102.4 128h755.2c57.6 0 102.4 44.8 102.4 102.4v492.8c6.4 64-44.8 108.8-96 108.8z" fill="#FFAA13" p-id="32390"></path><path d="M128 454.4a70.4 70.4 0 1 0 140.8 0 70.4 70.4 0 1 0-140.8 0Z" fill="#FFFFFF" p-id="32391"></path><path d="M384 454.4a70.4 70.4 0 1 0 140.8 0 70.4 70.4 0 1 0-140.8 0Z" fill="#FFFFFF" p-id="32392"></path><path d="M640 454.4a70.4 70.4 0 1 0 140.8 0 70.4 70.4 0 1 0-140.8 0Z" fill="#FFFFFF" p-id="32393"></path></svg>