<?xml version="1.0" standalone="no"?><!DOCTYPE svg PUBLIC "-//W3C//DTD SVG 1.1//EN" "http://www.w3.org/Graphics/SVG/1.1/DTD/svg11.dtd"><svg t="1731130238649" class="icon" viewBox="0 0 1024 1024" version="1.1" xmlns="http://www.w3.org/2000/svg" p-id="28525" xmlns:xlink="http://www.w3.org/1999/xlink" width="200" height="200"><path d="M735.68 507.093333A258.773333 258.773333 0 0 1 1002.645333 757.333333 257.962667 257.962667 0 0 1 735.658667 1002.666667a258.368 258.368 0 0 1-267.797334-245.333334 260.416 260.416 0 0 1 267.818667-250.24zM414.698667 21.504a311.253333 311.253333 0 0 1 127.573333 24.533333 177.813333 177.813333 0 0 1 109.568 118.528 819.669333 819.669333 0 0 1 18.389333 89.109334 174.933333 174.933333 0 0 0 15.936 68.672 73.152 73.152 0 0 1-30.250666 91.968 56 56 0 0 0-15.530667 26.56 31.061333 31.061333 0 0 1-18.816 20.437333c-194.624 83.797333-274.773333 297.962667-177.856 475.370667l6.954667 13.888c-40.896 0-77.696 2.453333-116.117334 0-87.466667-7.765333-174.933333-17.578667-261.674666-28.608-36.373333-4.501333-40.896-11.456-47.424-44.970667a286.016 286.016 0 0 1 4.501333-118.122667 98.133333 98.133333 0 0 1 72.426667-67.029333c31.488-11.029333 64.597333-18.389333 96.896-29.418667a319.381333 319.381333 0 0 0 53.973333-24.106666 81.749333 81.749333 0 0 0 44.970667-85.333334 58.858667 58.858667 0 0 0-23.722667-44.544A137.749333 137.749333 0 0 1 217.578667 426.666667a28.202667 28.202667 0 0 0-10.666667-13.077334 74.794667 74.794667 0 0 1-24.938667-102.592 74.368 74.368 0 0 0 7.36-25.344c5.312-35.562667 6.954667-72.746667 15.125334-107.498666a208.106667 208.106667 0 0 1 210.24-156.650667z m329.557333 534.634667h-6.144c98.538667 34.325333 157.866667 143.466667 106.666667 232.533333l-123.733334-113.173333 47.829334-44.544-29.866667-27.392a63.808 63.808 0 0 1-60.522667 11.434666l-94.869333 88.277334 53.525333 49.792 35.989334-33.514667 124.714666 116.16a182.4 182.4 0 0 1-208.106666-38.826667l-30.656 28.202667a347.882667 347.882667 0 0 0 26.176 31.061333l-3.264 2.858667h-4.906667a29.034667 29.034667 0 0 0-29.44 28.202667 28.202667 28.202667 0 0 0 29.44 26.986666 29.034667 29.034667 0 0 0 29.866667-27.392 20.437333 20.437333 0 0 0 0-4.906666l4.501333-4.096a217.6 217.6 0 0 0 232.234667 2.133333l35.157333 32.704 47.829333-43.733333-35.157333-33.109334c100.992-141.418667-33.536-280.384-154.965333-276.714666z" fill="#FAAD14" p-id="28526"></path></svg>